<svg width="16" height="18" viewBox="0 0 16 18" fill="none" xmlns="http://www.w3.org/2000/svg">
<path fill-rule="evenodd" clip-rule="evenodd" d="M9.14498 12.1826C10.0847 12.1826 10.8496 12.9517 10.8496 13.8972V16.3288C10.8496 16.5319 11.0103 16.6948 11.2164 16.6995H12.704C13.8763 16.6995 14.8293 15.7461 14.8293 14.5746V7.67826C14.8238 7.2751 14.6341 6.89566 14.3087 6.64349L9.16293 2.48701C8.4722 1.93287 7.50595 1.93287 6.81288 2.4886L1.70224 6.64191C1.36429 6.90198 1.17463 7.28142 1.17073 7.6917V14.5746C1.17073 15.7461 2.12371 16.6995 3.296 16.6995H4.79766C5.00917 16.6995 5.18088 16.5295 5.18088 16.3208C5.18088 16.275 5.18634 16.2291 5.19571 16.1857V13.8972C5.19571 12.9572 5.9559 12.1889 6.88859 12.1826H9.14498ZM12.704 17.8853H11.2023C10.3422 17.8647 9.67883 17.1809 9.67883 16.3288V13.8972C9.67883 13.6055 9.43922 13.3683 9.14498 13.3683H6.89249C6.60449 13.3699 6.36644 13.6078 6.36644 13.8972V16.3208C6.36644 16.3801 6.35863 16.437 6.34224 16.4908C6.25795 17.2734 5.59766 17.8853 4.79766 17.8853H3.296C1.47824 17.8853 0 16.3999 0 14.5746V7.68616C0.00780488 6.9004 0.365268 6.18104 0.982634 5.70753L6.08312 1.56133C7.20624 0.660158 8.77112 0.660158 9.8919 1.55975L15.0291 5.7099C15.6324 6.17551 15.9899 6.89329 16 7.66956V14.5746C16 16.3999 14.5218 17.8853 12.704 17.8853Z" fill="#9DADAD"/>
</svg>
